<?xml version="1.0" encoding="UTF-8" standalone="no"?>
<!DOCTYPE svg PUBLIC "-//W3C//DTD SVG 1.1//EN"
 "http://www.w3.org/Graphics/SVG/1.1/DTD/svg11.dtd">
<!-- Generated by graphviz version 2.43.0 (0)
 -->
<!-- Title: judge_call_sequence Pages: 1 -->
<svg width="493pt" height="1017pt"
 viewBox="0.00 0.00 492.79 1016.69" xmlns="http://www.w3.org/2000/svg" xmlns:xlink="http://www.w3.org/1999/xlink">
<g id="graph0" class="graph" transform="scale(1 1) rotate(0) translate(4 1012.69)">
<title>judge_call_sequence</title>
<polygon fill="#0d1117" stroke="transparent" points="-4,4 -4,-1012.69 488.79,-1012.69 488.79,4 -4,4"/>
<text text-anchor="start" x="127.89" y="-989.69" font-family="Helvetica,sans-Serif" font-weight="bold" font-size="20.00" fill="#e6edf3">Judge Call Sequence</text>
<!-- turn_end -->
<g id="node1" class="node">
<title>turn_end</title>
<ellipse fill="#161b22" stroke="#39ff14" stroke-width="2" cx="218" cy="-951.82" rx="135.11" ry="26.74"/>
<text text-anchor="middle" x="218" y="-955.62" font-family="Helvetica,sans-Serif" font-size="14.00" fill="#e6edf3">turn ends</text>
<text text-anchor="middle" x="218" y="-940.62" font-family="Helvetica,sans-Serif" font-size="14.00" fill="#e6edf3">(last_response produced)</text>
</g>
<!-- eval -->
<g id="node2" class="node">
<title>eval</title>
<path fill="#161b22" stroke="#00e5ff" stroke-width="2" d="M333.5,-887.95C333.5,-887.95 102.5,-887.95 102.5,-887.95 96.5,-887.95 90.5,-881.95 90.5,-875.95 90.5,-875.95 90.5,-861.95 90.5,-861.95 90.5,-855.95 96.5,-849.95 102.5,-849.95 102.5,-849.95 333.5,-849.95 333.5,-849.95 339.5,-849.95 345.5,-855.95 345.5,-861.95 345.5,-861.95 345.5,-875.95 345.5,-875.95 345.5,-881.95 339.5,-887.95 333.5,-887.95"/>
<text text-anchor="middle" x="218" y="-872.75" font-family="Helvetica,sans-Serif" font-size="14.00" fill="#e6edf3">GoalManager.evaluate_after_turn()</text>
<text text-anchor="middle" x="218" y="-857.75" font-family="Helvetica,sans-Serif" font-size="14.00" fill="#e6edf3">goals.py:1443</text>
</g>
<!-- turn_end&#45;&gt;eval -->
<g id="edge1" class="edge">
<title>turn_end&#45;&gt;eval</title>
<path fill="none" stroke="#00e5ff" stroke-width="1.5" d="M218,-924.79C218,-915.6 218,-905.27 218,-896.07"/>
<polygon fill="#00e5ff" stroke="#00e5ff" stroke-width="1.5" points="220.8,-896 218,-888 215.2,-896 220.8,-896"/>
</g>
<!-- gatecheck -->
<g id="node3" class="node">
<title>gatecheck</title>
<path fill="#161b22" stroke="#ffd400" stroke-width="2" d="M173.25,-781.54C173.25,-781.54 11.75,-748.37 11.75,-748.37 5.88,-747.16 5.88,-744.75 11.75,-743.54 11.75,-743.54 173.25,-710.37 173.25,-710.37 179.12,-709.16 190.88,-709.16 196.75,-710.37 196.75,-710.37 358.25,-743.54 358.25,-743.54 364.12,-744.75 364.12,-747.16 358.25,-748.37 358.25,-748.37 196.75,-781.54 196.75,-781.54 190.88,-782.75 179.12,-782.75 173.25,-781.54"/>
<text text-anchor="middle" x="185" y="-749.75" font-family="Helvetica,sans-Serif" font-size="14.00" fill="#e6edf3">_check_gates()</text>
<text text-anchor="middle" x="185" y="-734.75" font-family="Helvetica,sans-Serif" font-size="14.00" fill="#e6edf3">deterministic shell cmds</text>
</g>
<!-- eval&#45;&gt;gatecheck -->
<g id="edge2" class="edge">
<title>eval&#45;&gt;gatecheck</title>
<path fill="none" stroke="#00e5ff" stroke-width="1.5" d="M206.95,-849.78C203.98,-844.22 201.03,-837.98 199,-831.95 194.7,-819.16 191.69,-804.82 189.59,-791.61"/>
<polygon fill="#00e5ff" stroke="#00e5ff" stroke-width="1.5" points="192.34,-791.07 188.41,-783.56 186.8,-791.89 192.34,-791.07"/>
</g>
<!-- gatecheck&#45;&gt;eval -->
<g id="edge4" class="edge">
<title>gatecheck&#45;&gt;eval</title>
<path fill="none" stroke="#ff5555" stroke-width="1.5" d="M194.63,-782.25C199.82,-801.29 206.11,-824.37 210.86,-841.79"/>
<polygon fill="#ff5555" stroke="#ff5555" stroke-width="1.5" points="208.25,-842.86 213.06,-849.84 213.66,-841.38 208.25,-842.86"/>
<text text-anchor="middle" x="262.5" y="-820.75" font-family="Helvetica,sans-Serif" font-size="14.00" fill="#ff5555">gate fails</text>
<text text-anchor="middle" x="262.5" y="-805.75" font-family="Helvetica,sans-Serif" font-size="14.00" fill="#ff5555">(judge skipped)</text>
</g>
<!-- judge_goal -->
<g id="node4" class="node">
<title>judge_goal</title>
<path fill="#161b22" stroke="#00e5ff" stroke-width="2" d="M316,-656.95C316,-656.95 106,-656.95 106,-656.95 100,-656.95 94,-650.95 94,-644.95 94,-644.95 94,-615.95 94,-615.95 94,-609.95 100,-603.95 106,-603.95 106,-603.95 316,-603.95 316,-603.95 322,-603.95 328,-609.95 328,-615.95 328,-615.95 328,-644.95 328,-644.95 328,-650.95 322,-656.95 316,-656.95"/>
<text text-anchor="middle" x="211" y="-641.75" font-family="Helvetica,sans-Serif" font-size="14.00" fill="#e6edf3">judge_goal(goal, last_response,</text>
<text text-anchor="middle" x="211" y="-626.75" font-family="Helvetica,sans-Serif" font-size="14.00" fill="#e6edf3">subgoals, contract, ...)</text>
<text text-anchor="middle" x="211" y="-611.75" font-family="Helvetica,sans-Serif" font-size="14.00" fill="#e6edf3">goals.py:876</text>
</g>
<!-- gatecheck&#45;&gt;judge_goal -->
<g id="edge3" class="edge">
<title>gatecheck&#45;&gt;judge_goal</title>
<path fill="none" stroke="#00e5ff" stroke-width="1.5" d="M193.16,-709.35C196.39,-695.22 200.1,-679.05 203.29,-665.12"/>
<polygon fill="#00e5ff" stroke="#00e5ff" stroke-width="1.5" points="206.04,-665.63 205.1,-657.21 200.58,-664.38 206.04,-665.63"/>
<text text-anchor="middle" x="239" y="-678.75" font-family="Helvetica,sans-Serif" font-size="14.00" fill="#8b949e">gates pass</text>
</g>
<!-- build_prompt -->
<g id="node5" class="node">
<title>build_prompt</title>
<path fill="#161b22" stroke="#00e5ff" stroke-width="2" d="M323,-566.95C323,-566.95 135,-566.95 135,-566.95 129,-566.95 123,-560.95 123,-554.95 123,-554.95 123,-540.95 123,-540.95 123,-534.95 129,-528.95 135,-528.95 135,-528.95 323,-528.95 323,-528.95 329,-528.95 335,-534.95 335,-540.95 335,-540.95 335,-554.95 335,-554.95 335,-560.95 329,-566.95 323,-566.95"/>
<text text-anchor="middle" x="229" y="-551.75" font-family="Helvetica,sans-Serif" font-size="14.00" fill="#e6edf3">build prompt:</text>
<text text-anchor="middle" x="229" y="-536.75" font-family="Helvetica,sans-Serif" font-size="14.00" fill="#e6edf3">contract &gt; subgoals &gt; plain</text>
</g>
<!-- judge_goal&#45;&gt;build_prompt -->
<g id="edge5" class="edge">
<title>judge_goal&#45;&gt;build_prompt</title>
<path fill="none" stroke="#00e5ff" stroke-width="1.5" d="M216.79,-603.54C218.81,-594.53 221.07,-584.42 223.09,-575.37"/>
<polygon fill="#00e5ff" stroke="#00e5ff" stroke-width="1.5" points="225.86,-575.84 224.87,-567.42 220.39,-574.62 225.86,-575.84"/>
</g>
<!-- call_wrapper -->
<g id="node6" class="node">
<title>call_wrapper</title>
<path fill="#161b22" stroke="#00e5ff" stroke-width="2" d="M305.5,-491.95C305.5,-491.95 162.5,-491.95 162.5,-491.95 156.5,-491.95 150.5,-485.95 150.5,-479.95 150.5,-479.95 150.5,-465.95 150.5,-465.95 150.5,-459.95 156.5,-453.95 162.5,-453.95 162.5,-453.95 305.5,-453.95 305.5,-453.95 311.5,-453.95 317.5,-459.95 317.5,-465.95 317.5,-465.95 317.5,-479.95 317.5,-479.95 317.5,-485.95 311.5,-491.95 305.5,-491.95"/>
<text text-anchor="middle" x="234" y="-476.75" font-family="Helvetica,sans-Serif" font-size="14.00" fill="#e6edf3">_call_goal_judge_llm()</text>
<text text-anchor="middle" x="234" y="-461.75" font-family="Helvetica,sans-Serif" font-size="14.00" fill="#e6edf3">goals.py:860</text>
</g>
<!-- build_prompt&#45;&gt;call_wrapper -->
<g id="edge6" class="edge">
<title>build_prompt&#45;&gt;call_wrapper</title>
<path fill="none" stroke="#00e5ff" stroke-width="1.5" d="M230.24,-528.91C230.83,-520.22 231.56,-509.64 232.21,-500.1"/>
<polygon fill="#00e5ff" stroke="#00e5ff" stroke-width="1.5" points="235.01,-500.22 232.76,-492.04 229.42,-499.83 235.01,-500.22"/>
</g>
<!-- call_llm -->
<g id="node7" class="node">
<title>call_llm</title>
<path fill="#161b22" stroke="#ff2fd0" stroke-width="2" d="M357.5,-387.95C357.5,-387.95 112.5,-387.95 112.5,-387.95 106.5,-387.95 100.5,-381.95 100.5,-375.95 100.5,-375.95 100.5,-361.95 100.5,-361.95 100.5,-355.95 106.5,-349.95 112.5,-349.95 112.5,-349.95 357.5,-349.95 357.5,-349.95 363.5,-349.95 369.5,-355.95 369.5,-361.95 369.5,-361.95 369.5,-375.95 369.5,-375.95 369.5,-381.95 363.5,-387.95 357.5,-387.95"/>
<text text-anchor="middle" x="235" y="-372.75" font-family="Helvetica,sans-Serif" font-size="14.00" fill="#e6edf3">call_llm(task=&quot;goal_judge&quot;,</text>
<text text-anchor="middle" x="235" y="-357.75" font-family="Helvetica,sans-Serif" font-size="14.00" fill="#e6edf3">temperature=0, max_tokens=4096)</text>
</g>
<!-- call_wrapper&#45;&gt;call_llm -->
<g id="edge7" class="edge">
<title>call_wrapper&#45;&gt;call_llm</title>
<path fill="none" stroke="#00e5ff" stroke-width="1.5" d="M234.18,-453.72C234.34,-437.76 234.56,-414.39 234.74,-396.38"/>
<polygon fill="#00e5ff" stroke="#00e5ff" stroke-width="1.5" points="237.54,-396.06 234.82,-388.03 231.94,-396 237.54,-396.06"/>
</g>
<!-- provider -->
<g id="node8" class="node">
<title>provider</title>
<path fill="#161b22" stroke="#ff2fd0" stroke-width="2" d="M336.5,-312.95C336.5,-312.95 175.5,-312.95 175.5,-312.95 169.5,-312.95 163.5,-306.95 163.5,-300.95 163.5,-300.95 163.5,-271.95 163.5,-271.95 163.5,-265.95 169.5,-259.95 175.5,-259.95 175.5,-259.95 336.5,-259.95 336.5,-259.95 342.5,-259.95 348.5,-265.95 348.5,-271.95 348.5,-271.95 348.5,-300.95 348.5,-300.95 348.5,-306.95 342.5,-312.95 336.5,-312.95"/>
<text text-anchor="middle" x="256" y="-297.75" font-family="Helvetica,sans-Serif" font-size="14.00" fill="#e6edf3">resolved provider/model</text>
<text text-anchor="middle" x="256" y="-282.75" font-family="Helvetica,sans-Serif" font-size="14.00" fill="#e6edf3">(auxiliary.goal_judge.*</text>
<text text-anchor="middle" x="256" y="-267.75" font-family="Helvetica,sans-Serif" font-size="14.00" fill="#e6edf3">in config.yaml)</text>
</g>
<!-- call_llm&#45;&gt;provider -->
<g id="edge8" class="edge">
<title>call_llm&#45;&gt;provider</title>
<path fill="none" stroke="#00e5ff" stroke-width="1.5" d="M239.77,-349.69C242,-341.12 244.73,-330.64 247.32,-320.74"/>
<polygon fill="#00e5ff" stroke="#00e5ff" stroke-width="1.5" points="250.03,-321.42 249.34,-312.97 244.61,-320 250.03,-321.42"/>
</g>
<!-- raw -->
<g id="node9" class="node">
<title>raw</title>
<path fill="#161b22" stroke="#00e5ff" stroke-width="2" d="M335,-222.95C335,-222.95 207,-222.95 207,-222.95 201,-222.95 195,-216.95 195,-210.95 195,-210.95 195,-198.95 195,-198.95 195,-192.95 201,-186.95 207,-186.95 207,-186.95 335,-186.95 335,-186.95 341,-186.95 347,-192.95 347,-198.95 347,-198.95 347,-210.95 347,-210.95 347,-216.95 341,-222.95 335,-222.95"/>
<text text-anchor="middle" x="271" y="-201.25" font-family="Helvetica,sans-Serif" font-size="14.00" fill="#e6edf3">raw JSON reply text</text>
</g>
<!-- provider&#45;&gt;raw -->
<g id="edge9" class="edge">
<title>provider&#45;&gt;raw</title>
<path fill="none" stroke="#00e5ff" stroke-width="1.5" d="M260.83,-259.86C262.56,-250.69 264.51,-240.35 266.23,-231.21"/>
<polygon fill="#00e5ff" stroke="#00e5ff" stroke-width="1.5" points="269.01,-231.59 267.74,-223.21 263.51,-230.55 269.01,-231.59"/>
</g>
<!-- parse -->
<g id="node10" class="node">
<title>parse</title>
<path fill="#161b22" stroke="#00e5ff" stroke-width="2" d="M357,-149.95C357,-149.95 193,-149.95 193,-149.95 187,-149.95 181,-143.95 181,-137.95 181,-137.95 181,-123.95 181,-123.95 181,-117.95 187,-111.95 193,-111.95 193,-111.95 357,-111.95 357,-111.95 363,-111.95 369,-117.95 369,-123.95 369,-123.95 369,-137.95 369,-137.95 369,-143.95 363,-149.95 357,-149.95"/>
<text text-anchor="middle" x="275" y="-134.75" font-family="Helvetica,sans-Serif" font-size="14.00" fill="#e6edf3">_parse_judge_response()</text>
<text text-anchor="middle" x="275" y="-119.75" font-family="Helvetica,sans-Serif" font-size="14.00" fill="#e6edf3">goals.py:780</text>
</g>
<!-- raw&#45;&gt;parse -->
<g id="edge10" class="edge">
<title>raw&#45;&gt;parse</title>
<path fill="none" stroke="#00e5ff" stroke-width="1.5" d="M271.95,-186.89C272.42,-178.33 273.01,-167.78 273.54,-158.22"/>
<polygon fill="#00e5ff" stroke="#00e5ff" stroke-width="1.5" points="276.34,-158.3 273.99,-150.15 270.75,-157.98 276.34,-158.3"/>
</g>
<!-- verdict -->
<g id="node11" class="node">
<title>verdict</title>
<ellipse fill="#161b22" stroke="#39ff14" stroke-width="2" cx="337" cy="-37.48" rx="147.57" ry="37.45"/>
<text text-anchor="middle" x="337" y="-48.78" font-family="Helvetica,sans-Serif" font-size="14.00" fill="#e6edf3">(verdict, reason,</text>
<text text-anchor="middle" x="337" y="-33.78" font-family="Helvetica,sans-Serif" font-size="14.00" fill="#e6edf3">parse_failed, wait_directive,</text>
<text text-anchor="middle" x="337" y="-18.78" font-family="Helvetica,sans-Serif" font-size="14.00" fill="#e6edf3">transport_failed)</text>
</g>
<!-- parse&#45;&gt;verdict -->
<g id="edge11" class="edge">
<title>parse&#45;&gt;verdict</title>
<path fill="none" stroke="#00e5ff" stroke-width="1.5" d="M287.25,-111.88C293.21,-103.08 300.66,-92.1 307.95,-81.33"/>
<polygon fill="#00e5ff" stroke="#00e5ff" stroke-width="1.5" points="310.29,-82.87 312.47,-74.68 305.66,-79.73 310.29,-82.87"/>
</g>
<!-- verdict&#45;&gt;eval -->
<g id="edge12" class="edge">
<title>verdict&#45;&gt;eval</title>
<path fill="none" stroke="#00e5ff" stroke-width="1.5" d="M374.59,-74.18C387.14,-89.84 398,-109.34 398,-129.95 398,-746.95 398,-746.95 398,-746.95 398,-798.42 346.68,-829.42 298.85,-847.14"/>
<polygon fill="#00e5ff" stroke="#00e5ff" stroke-width="1.5" points="297.8,-844.54 291.21,-849.87 299.69,-849.82 297.8,-844.54"/>
<text text-anchor="middle" x="432.5" y="-424.75" font-family="Helvetica,sans-Serif" font-size="14.00" fill="#8b949e">applies to</text>
<text text-anchor="middle" x="432.5" y="-409.75" font-family="Helvetica,sans-Serif" font-size="14.00" fill="#8b949e">loop state</text>
</g>
</g>
</svg>
