<?xml version="1.0" encoding="UTF-8" standalone="no"?>
<!DOCTYPE svg PUBLIC "-//W3C//DTD SVG 1.1//EN"
 "http://www.w3.org/Graphics/SVG/1.1/DTD/svg11.dtd">
<!-- Generated by graphviz version 2.43.0 (0)
 -->
<!-- Title: config_resolution_chain Pages: 1 -->
<svg width="1913pt" height="215pt"
 viewBox="0.00 0.00 1912.69 215.00" xmlns="http://www.w3.org/2000/svg" xmlns:xlink="http://www.w3.org/1999/xlink">
<g id="graph0" class="graph" transform="scale(1 1) rotate(0) translate(4 211)">
<title>config_resolution_chain</title>
<polygon fill="#0d1117" stroke="transparent" points="-4,4 -4,-211 1908.69,-211 1908.69,4 -4,4"/>
<text text-anchor="start" x="782.35" y="-188" font-family="Helvetica,sans-Serif" font-weight="bold" font-size="20.00" fill="#e6edf3">Judge Config Resolution Chain</text>
<!-- yaml -->
<g id="node1" class="node">
<title>yaml</title>
<path fill="#161b22" stroke="#ffd400" stroke-width="2" d="M506,-177C506,-177 355,-177 355,-177 349,-177 343,-171 343,-165 343,-165 343,-91 343,-91 343,-85 349,-79 355,-79 355,-79 506,-79 506,-79 512,-79 518,-85 518,-91 518,-91 518,-165 518,-165 518,-171 512,-177 506,-177"/>
<text text-anchor="middle" x="430.5" y="-161.8" font-family="Helvetica,sans-Serif" font-size="14.00" fill="#e6edf3">~/.hermes/config.yaml</text>
<text text-anchor="middle" x="430.5" y="-146.8" font-family="Helvetica,sans-Serif" font-size="14.00" fill="#e6edf3">auxiliary:</text>
<text text-anchor="middle" x="430.5" y="-131.8" font-family="Helvetica,sans-Serif" font-size="14.00" fill="#e6edf3"> &#160;goal_judge:</text>
<text text-anchor="middle" x="430.5" y="-116.8" font-family="Helvetica,sans-Serif" font-size="14.00" fill="#e6edf3"> &#160;&#160;&#160;provider: ...</text>
<text text-anchor="middle" x="430.5" y="-101.8" font-family="Helvetica,sans-Serif" font-size="14.00" fill="#e6edf3"> &#160;&#160;&#160;model: ...</text>
<text text-anchor="middle" x="430.5" y="-86.8" font-family="Helvetica,sans-Serif" font-size="14.00" fill="#e6edf3"> &#160;&#160;&#160;timeout: ...</text>
</g>
<!-- task_call -->
<g id="node4" class="node">
<title>task_call</title>
<path fill="#161b22" stroke="#00e5ff" stroke-width="2" d="M865,-100C865,-100 659,-100 659,-100 653,-100 647,-94 647,-88 647,-88 647,-74 647,-74 647,-68 653,-62 659,-62 659,-62 865,-62 865,-62 871,-62 877,-68 877,-74 877,-74 877,-88 877,-88 877,-94 871,-100 865,-100"/>
<text text-anchor="middle" x="762" y="-84.8" font-family="Helvetica,sans-Serif" font-size="14.00" fill="#e6edf3">call_llm(task=&quot;goal_judge&quot;, ...)</text>
<text text-anchor="middle" x="762" y="-69.8" font-family="Helvetica,sans-Serif" font-size="14.00" fill="#e6edf3">goals.py:860</text>
</g>
<!-- yaml&#45;&gt;task_call -->
<g id="edge1" class="edge">
<title>yaml&#45;&gt;task_call</title>
<path fill="none" stroke="#00e5ff" stroke-width="1.5" d="M518.07,-115.65C554.99,-110.39 598.72,-104.15 638.83,-98.43"/>
<polygon fill="#00e5ff" stroke="#00e5ff" stroke-width="1.5" points="639.28,-101.19 646.8,-97.29 638.49,-95.65 639.28,-101.19"/>
<text text-anchor="middle" x="582.5" y="-115.8" font-family="Helvetica,sans-Serif" font-size="14.00" fill="#8b949e">user override</text>
</g>
<!-- defaults -->
<g id="node2" class="node">
<title>defaults</title>
<path fill="#161b22" stroke="#00e5ff" stroke-width="2" d="M506,-60.5C506,-60.5 355,-60.5 355,-60.5 349,-60.5 343,-54.5 343,-48.5 343,-48.5 343,-19.5 343,-19.5 343,-13.5 349,-7.5 355,-7.5 355,-7.5 506,-7.5 506,-7.5 512,-7.5 518,-13.5 518,-19.5 518,-19.5 518,-48.5 518,-48.5 518,-54.5 512,-60.5 506,-60.5"/>
<text text-anchor="middle" x="430.5" y="-45.3" font-family="Helvetica,sans-Serif" font-size="14.00" fill="#e6edf3">config_defaults.py:734</text>
<text text-anchor="middle" x="430.5" y="-30.3" font-family="Helvetica,sans-Serif" font-size="14.00" fill="#e6edf3">&quot;goal_judge&quot;: _aux(60)</text>
<text text-anchor="middle" x="430.5" y="-15.3" font-family="Helvetica,sans-Serif" font-size="14.00" fill="#e6edf3">(built&#45;in fallback)</text>
</g>
<!-- defaults&#45;&gt;task_call -->
<g id="edge2" class="edge">
<title>defaults&#45;&gt;task_call</title>
<path fill="none" stroke="#00e5ff" stroke-width="1.5" d="M518.07,-46.35C554.99,-51.61 598.72,-57.85 638.83,-63.57"/>
<polygon fill="#00e5ff" stroke="#00e5ff" stroke-width="1.5" points="638.49,-66.35 646.8,-64.71 639.28,-60.81 638.49,-66.35"/>
<text text-anchor="middle" x="582.5" y="-65.8" font-family="Helvetica,sans-Serif" font-size="14.00" fill="#8b949e">if no override</text>
</g>
<!-- siblings -->
<g id="node3" class="node">
<title>siblings</title>
<path fill="#161b22" stroke="#8b949e" stroke-width="2" d="M174,-68C174,-68 12,-68 12,-68 6,-68 0,-62 0,-56 0,-56 0,-12 0,-12 0,-6 6,0 12,0 12,0 174,0 174,0 180,0 186,-6 186,-12 186,-12 186,-56 186,-56 186,-62 180,-68 174,-68"/>
<text text-anchor="middle" x="93" y="-52.8" font-family="Helvetica,sans-Serif" font-size="14.00" fill="#e6edf3">sibling auxiliary slots</text>
<text text-anchor="middle" x="93" y="-37.8" font-family="Helvetica,sans-Serif" font-size="14.00" fill="#e6edf3">(compression, approval,</text>
<text text-anchor="middle" x="93" y="-22.8" font-family="Helvetica,sans-Serif" font-size="14.00" fill="#e6edf3">mcp, curator, ...)</text>
<text text-anchor="middle" x="93" y="-7.8" font-family="Helvetica,sans-Serif" font-size="14.00" fill="#e6edf3">same _aux() mechanism</text>
</g>
<!-- siblings&#45;&gt;defaults -->
<g id="edge3" class="edge">
<title>siblings&#45;&gt;defaults</title>
<path fill="none" stroke="#00e5ff" stroke-width="1.5" stroke-dasharray="5,2" d="M186.12,-34C232.24,-34 288,-34 334.5,-34"/>
<polygon fill="#00e5ff" stroke="#00e5ff" stroke-width="1.5" points="334.78,-36.8 342.78,-34 334.78,-31.2 334.78,-36.8"/>
<text text-anchor="middle" x="264.5" y="-52.8" font-family="Helvetica,sans-Serif" font-size="14.00" fill="#8b949e">same table,</text>
<text text-anchor="middle" x="264.5" y="-37.8" font-family="Helvetica,sans-Serif" font-size="14.00" fill="#8b949e">different task key</text>
</g>
<!-- resolver -->
<g id="node5" class="node">
<title>resolver</title>
<path fill="#161b22" stroke="#ff2fd0" stroke-width="2" d="M1099,-100C1099,-100 926,-100 926,-100 920,-100 914,-94 914,-88 914,-88 914,-74 914,-74 914,-68 920,-62 926,-62 926,-62 1099,-62 1099,-62 1105,-62 1111,-68 1111,-74 1111,-74 1111,-88 1111,-88 1111,-94 1105,-100 1099,-100"/>
<text text-anchor="middle" x="1012.5" y="-84.8" font-family="Helvetica,sans-Serif" font-size="14.00" fill="#e6edf3">auxiliary task resolver</text>
<text text-anchor="middle" x="1012.5" y="-69.8" font-family="Helvetica,sans-Serif" font-size="14.00" fill="#e6edf3">(agent/auxiliary_client.py)</text>
</g>
<!-- task_call&#45;&gt;resolver -->
<g id="edge4" class="edge">
<title>task_call&#45;&gt;resolver</title>
<path fill="none" stroke="#00e5ff" stroke-width="1.5" d="M877.07,-81C886.54,-81 896.09,-81 905.5,-81"/>
<polygon fill="#00e5ff" stroke="#00e5ff" stroke-width="1.5" points="905.73,-83.8 913.73,-81 905.73,-78.2 905.73,-83.8"/>
</g>
<!-- auto -->
<g id="node6" class="node">
<title>auto</title>
<path fill="#161b22" stroke="#ffd400" stroke-width="2" d="M1325.4,-97.86C1325.4,-97.86 1160.1,-82.14 1160.1,-82.14 1154.13,-81.57 1154.13,-80.43 1160.1,-79.86 1160.1,-79.86 1325.4,-64.14 1325.4,-64.14 1331.37,-63.57 1343.32,-63.57 1349.29,-64.14 1349.29,-64.14 1514.59,-79.86 1514.59,-79.86 1520.57,-80.43 1520.57,-81.57 1514.59,-82.14 1514.59,-82.14 1349.29,-97.86 1349.29,-97.86 1343.32,-98.43 1331.37,-98.43 1325.4,-97.86"/>
<text text-anchor="middle" x="1337.35" y="-77.3" font-family="Helvetica,sans-Serif" font-size="14.00" fill="#e6edf3">provider/model == &quot;auto&quot;?</text>
</g>
<!-- resolver&#45;&gt;auto -->
<g id="edge5" class="edge">
<title>resolver&#45;&gt;auto</title>
<path fill="none" stroke="#00e5ff" stroke-width="1.5" d="M1111.24,-81C1120.45,-81 1129.98,-81 1139.7,-81"/>
<polygon fill="#00e5ff" stroke="#00e5ff" stroke-width="1.5" points="1139.9,-83.8 1147.9,-81 1139.9,-78.2 1139.9,-83.8"/>
</g>
<!-- main_model -->
<g id="node7" class="node">
<title>main_model</title>
<path fill="#161b22" stroke="#00e5ff" stroke-width="2" d="M1847.69,-143.5C1847.69,-143.5 1728.69,-143.5 1728.69,-143.5 1722.69,-143.5 1716.69,-137.5 1716.69,-131.5 1716.69,-131.5 1716.69,-102.5 1716.69,-102.5 1716.69,-96.5 1722.69,-90.5 1728.69,-90.5 1728.69,-90.5 1847.69,-90.5 1847.69,-90.5 1853.69,-90.5 1859.69,-96.5 1859.69,-102.5 1859.69,-102.5 1859.69,-131.5 1859.69,-131.5 1859.69,-137.5 1853.69,-143.5 1847.69,-143.5"/>
<text text-anchor="middle" x="1788.19" y="-128.3" font-family="Helvetica,sans-Serif" font-size="14.00" fill="#e6edf3">falls back to</text>
<text text-anchor="middle" x="1788.19" y="-113.3" font-family="Helvetica,sans-Serif" font-size="14.00" fill="#e6edf3">main chat model</text>
<text text-anchor="middle" x="1788.19" y="-98.3" font-family="Helvetica,sans-Serif" font-size="14.00" fill="#e6edf3">(e.g. local Ollama)</text>
</g>
<!-- auto&#45;&gt;main_model -->
<g id="edge6" class="edge">
<title>auto&#45;&gt;main_model</title>
<path fill="none" stroke="#00e5ff" stroke-width="1.5" d="M1440.48,-89.19C1521.85,-95.72 1634.09,-104.72 1708.57,-110.69"/>
<polygon fill="#00e5ff" stroke="#00e5ff" stroke-width="1.5" points="1708.36,-113.49 1716.56,-111.33 1708.81,-107.9 1708.36,-113.49"/>
<text text-anchor="middle" x="1599.19" y="-108.8" font-family="Helvetica,sans-Serif" font-size="14.00" fill="#8b949e">yes (default)</text>
</g>
<!-- pinned_model -->
<g id="node8" class="node">
<title>pinned_model</title>
<path fill="#161b22" stroke="#00e5ff" stroke-width="2" d="M1892.69,-72.5C1892.69,-72.5 1683.69,-72.5 1683.69,-72.5 1677.69,-72.5 1671.69,-66.5 1671.69,-60.5 1671.69,-60.5 1671.69,-31.5 1671.69,-31.5 1671.69,-25.5 1677.69,-19.5 1683.69,-19.5 1683.69,-19.5 1892.69,-19.5 1892.69,-19.5 1898.69,-19.5 1904.69,-25.5 1904.69,-31.5 1904.69,-31.5 1904.69,-60.5 1904.69,-60.5 1904.69,-66.5 1898.69,-72.5 1892.69,-72.5"/>
<text text-anchor="middle" x="1788.19" y="-57.3" font-family="Helvetica,sans-Serif" font-size="14.00" fill="#e6edf3">uses pinned model</text>
<text text-anchor="middle" x="1788.19" y="-42.3" font-family="Helvetica,sans-Serif" font-size="14.00" fill="#e6edf3">(e.g. deepseek&#45;flash,</text>
<text text-anchor="middle" x="1788.19" y="-27.3" font-family="Helvetica,sans-Serif" font-size="14.00" fill="#e6edf3">google/gemini&#45;3&#45;flash&#45;preview)</text>
</g>
<!-- auto&#45;&gt;pinned_model -->
<g id="edge7" class="edge">
<title>auto&#45;&gt;pinned_model</title>
<path fill="none" stroke="#00e5ff" stroke-width="1.5" d="M1441.88,-72.93C1507.95,-67.78 1593.93,-61.07 1663.56,-55.64"/>
<polygon fill="#00e5ff" stroke="#00e5ff" stroke-width="1.5" points="1663.78,-58.43 1671.54,-55.02 1663.35,-52.85 1663.78,-58.43"/>
<text text-anchor="middle" x="1599.19" y="-68.8" font-family="Helvetica,sans-Serif" font-size="14.00" fill="#8b949e">no (explicit pin)</text>
</g>
</g>
</svg>
