<?xml version="1.0" encoding="UTF-8" standalone="no"?>
<!DOCTYPE svg PUBLIC "-//W3C//DTD SVG 1.1//EN"
 "http://www.w3.org/Graphics/SVG/1.1/DTD/svg11.dtd">
<!-- Generated by graphviz version 2.43.0 (0)
 -->
<!-- Title: MoeVsDense Pages: 1 -->
<svg width="836pt" height="458pt"
 viewBox="0.00 0.00 835.60 457.60" xmlns="http://www.w3.org/2000/svg" xmlns:xlink="http://www.w3.org/1999/xlink">
<g id="graph0" class="graph" transform="scale(1 1) rotate(0) translate(28.8 428.8)">
<title>MoeVsDense</title>
<polygon fill="#0d0620" stroke="transparent" points="-28.8,28.8 -28.8,-428.8 806.8,-428.8 806.8,28.8 -28.8,28.8"/>
<text text-anchor="middle" x="389" y="-380" font-family="Courier New" font-size="20.00" fill="#f5f3ff">15 — MoE vs. Dense Model Tradeoffs</text>
<g id="clust1" class="cluster">
<title>cluster_dense</title>
<path fill="#0b1a2a" stroke="#22d3ee" d="M20,-102C20,-102 373,-102 373,-102 379,-102 385,-108 385,-114 385,-114 385,-350 385,-350 385,-356 379,-362 373,-362 373,-362 20,-362 20,-362 14,-362 8,-356 8,-350 8,-350 8,-114 8,-114 8,-108 14,-102 20,-102"/>
<text text-anchor="middle" x="196.5" y="-342" font-family="Courier New" font-size="20.00" fill="#22d3ee">Dense (e.g. qwen3:4b&#45;thinking)</text>
</g>
<g id="clust2" class="cluster">
<title>cluster_moe</title>
<path fill="#1e0b16" stroke="#f472b6" d="M405,-96C405,-96 758,-96 758,-96 764,-96 770,-102 770,-108 770,-108 770,-350 770,-350 770,-356 764,-362 758,-362 758,-362 405,-362 405,-362 399,-362 393,-356 393,-350 393,-350 393,-108 393,-108 393,-102 399,-96 405,-96"/>
<text text-anchor="middle" x="581.5" y="-342" font-family="Courier New" font-size="20.00" fill="#f472b6">MoE (e.g. qwen3&#45;coder:30b&#45;a3b)</text>
</g>
<!-- D1 -->
<g id="node1" class="node">
<title>D1</title>
<polygon fill="#1a1033" stroke="#22d3ee" stroke-width="2" points="281.5,-324 108.5,-324 108.5,-276 281.5,-276 281.5,-324"/>
<text text-anchor="middle" x="195" y="-303.2" font-family="Courier New" font-size="11.00" fill="#f5f3ff">Every parameter active</text>
<text text-anchor="middle" x="195" y="-291.2" font-family="Courier New" font-size="11.00" fill="#f5f3ff">for every token</text>
</g>
<!-- D2 -->
<g id="node2" class="node">
<title>D2</title>
<polygon fill="#1a1033" stroke="#22d3ee" stroke-width="2" points="288.5,-244 101.5,-244 101.5,-196 288.5,-196 288.5,-244"/>
<text text-anchor="middle" x="195" y="-223.2" font-family="Courier New" font-size="11.00" fill="#f5f3ff">Smaller total size,</text>
<text text-anchor="middle" x="195" y="-211.2" font-family="Courier New" font-size="11.00" fill="#f5f3ff">predictable VRAM/compute</text>
</g>
<!-- D1&#45;&gt;D2 -->
<g id="edge1" class="edge">
<title>D1&#45;&gt;D2</title>
<path fill="none" stroke="#f472b6" stroke-width="1.6" d="M195,-275.6C195,-268.13 195,-259.74 195,-251.82"/>
<polygon fill="#f472b6" stroke="#f472b6" stroke-width="1.6" points="197.63,-251.62 195,-244.12 192.38,-251.62 197.63,-251.62"/>
</g>
<!-- D3 -->
<g id="node3" class="node">
<title>D3</title>
<polygon fill="#1a1033" stroke="#22d3ee" stroke-width="2" points="278,-158 112,-158 112,-110 278,-110 278,-158"/>
<text text-anchor="middle" x="195" y="-137.2" font-family="Courier New" font-size="11.00" fill="#f5f3ff">Simpler to place</text>
<text text-anchor="middle" x="195" y="-125.2" font-family="Courier New" font-size="11.00" fill="#f5f3ff">on a fixed GPU budget</text>
</g>
<!-- D2&#45;&gt;D3 -->
<g id="edge2" class="edge">
<title>D2&#45;&gt;D3</title>
<path fill="none" stroke="#f472b6" stroke-width="1.6" d="M195,-195.6C195,-186.41 195,-175.72 195,-165.91"/>
<polygon fill="#f472b6" stroke="#f472b6" stroke-width="1.6" points="197.63,-165.77 195,-158.27 192.38,-165.77 197.63,-165.77"/>
</g>
<!-- M1 -->
<g id="node4" class="node">
<title>M1</title>
<polygon fill="#1a1033" stroke="#f472b6" stroke-width="2" points="701.5,-324 460.5,-324 460.5,-276 701.5,-276 701.5,-324"/>
<text text-anchor="middle" x="581" y="-303.2" font-family="Courier New" font-size="11.00" fill="#f5f3ff">Only a few &#39;expert&#39; sub&#45;networks</text>
<text text-anchor="middle" x="581" y="-291.2" font-family="Courier New" font-size="11.00" fill="#f5f3ff">activate per token</text>
</g>
<!-- M2 -->
<g id="node5" class="node">
<title>M2</title>
<polygon fill="#1a1033" stroke="#f472b6" stroke-width="2" points="691,-244 471,-244 471,-196 691,-196 691,-244"/>
<text text-anchor="middle" x="581" y="-223.2" font-family="Courier New" font-size="11.00" fill="#f5f3ff">Large TOTAL param count (30B)</text>
<text text-anchor="middle" x="581" y="-211.2" font-family="Courier New" font-size="11.00" fill="#f5f3ff">but cheaper compute per token</text>
</g>
<!-- M1&#45;&gt;M2 -->
<g id="edge3" class="edge">
<title>M1&#45;&gt;M2</title>
<path fill="none" stroke="#f472b6" stroke-width="1.6" d="M581,-275.6C581,-268.13 581,-259.74 581,-251.82"/>
<polygon fill="#f472b6" stroke="#f472b6" stroke-width="1.6" points="583.63,-251.62 581,-244.12 578.38,-251.62 583.63,-251.62"/>
</g>
<!-- M3 -->
<g id="node6" class="node">
<title>M3</title>
<polygon fill="#2a0f1a" stroke="#f472b6" stroke-width="2" points="725,-164 437,-164 437,-104 725,-104 725,-164"/>
<text text-anchor="middle" x="581" y="-143.2" font-family="Courier New" font-size="11.00" fill="#f5f3ff">Full weights still must be</text>
<text text-anchor="middle" x="581" y="-131.2" font-family="Courier New" font-size="11.00" fill="#f5f3ff">resident (or offloaded) —</text>
<text text-anchor="middle" x="581" y="-119.2" font-family="Courier New" font-size="11.00" fill="#f5f3ff">VRAM cost ≈ total size, not active size</text>
</g>
<!-- M2&#45;&gt;M3 -->
<g id="edge4" class="edge">
<title>M2&#45;&gt;M3</title>
<path fill="none" stroke="#f472b6" stroke-width="1.6" d="M581,-195.6C581,-188.32 581,-180.1 581,-172.12"/>
<polygon fill="#f472b6" stroke="#f472b6" stroke-width="1.6" points="583.63,-171.77 581,-164.27 578.38,-171.77 583.63,-171.77"/>
</g>
<!-- OBS -->
<g id="node7" class="node">
<title>OBS</title>
<polygon fill="#241541" stroke="#facc15" stroke-width="2" points="711.5,-72 450.5,-72 450.5,0 711.5,0 711.5,-72"/>
<text text-anchor="middle" x="581" y="-51.2" font-family="Courier New" font-size="11.00" fill="#f5f3ff">Observed this session: 30b&#45;a3b</text>
<text text-anchor="middle" x="581" y="-39.2" font-family="Courier New" font-size="11.00" fill="#f5f3ff">reported 46GB, 45%/55% CPU/GPU —</text>
<text text-anchor="middle" x="581" y="-27.2" font-family="Courier New" font-size="11.00" fill="#f5f3ff">MoE&#39;s compute&#45;per&#45;token win doesn&#39;t</text>
<text text-anchor="middle" x="581" y="-15.2" font-family="Courier New" font-size="11.00" fill="#f5f3ff">shrink the VRAM footprint</text>
</g>
<!-- M3&#45;&gt;OBS -->
<g id="edge5" class="edge">
<title>M3&#45;&gt;OBS</title>
<path fill="none" stroke="#facc15" stroke-width="1.6" stroke-dasharray="5,2" d="M581,-103.94C581,-96.32 581,-87.96 581,-79.79"/>
<polygon fill="#facc15" stroke="#facc15" stroke-width="1.6" points="583.63,-79.56 581,-72.06 578.38,-79.56 583.63,-79.56"/>
</g>
</g>
</svg>
