<?xml version="1.0" encoding="UTF-8" standalone="no"?>
<!DOCTYPE svg PUBLIC "-//W3C//DTD SVG 1.1//EN"
 "http://www.w3.org/Graphics/SVG/1.1/DTD/svg11.dtd">
<!-- Generated by graphviz version 2.43.0 (0)
 -->
<!-- Title: ToolCallProtocols Pages: 1 -->
<svg width="909pt" height="494pt"
 viewBox="0.00 0.00 908.60 493.60" xmlns="http://www.w3.org/2000/svg" xmlns:xlink="http://www.w3.org/1999/xlink">
<g id="graph0" class="graph" transform="scale(1 1) rotate(0) translate(28.8 464.8)">
<title>ToolCallProtocols</title>
<polygon fill="#0d0620" stroke="transparent" points="-28.8,28.8 -28.8,-464.8 879.8,-464.8 879.8,28.8 -28.8,28.8"/>
<text text-anchor="middle" x="425.5" y="-416" font-family="Courier New" font-size="20.00" fill="#f5f3ff">20 — Tool&#45;Calling Protocol Comparison</text>
<g id="clust1" class="cluster">
<title>cluster_openai</title>
<path fill="#0b1a2a" stroke="#22d3ee" d="M20,-125C20,-125 289,-125 289,-125 295,-125 301,-131 301,-137 301,-137 301,-294 301,-294 301,-300 295,-306 289,-306 289,-306 20,-306 20,-306 14,-306 8,-300 8,-294 8,-294 8,-137 8,-137 8,-131 14,-125 20,-125"/>
<text text-anchor="middle" x="154.5" y="-286" font-family="Courier New" font-size="20.00" fill="#22d3ee">OpenAI function&#45;calling</text>
</g>
<g id="clust2" class="cluster">
<title>cluster_hermes</title>
<path fill="#1e0b16" stroke="#f472b6" d="M321,-114C321,-114 590,-114 590,-114 596,-114 602,-120 602,-126 602,-126 602,-386 602,-386 602,-392 596,-398 590,-398 590,-398 321,-398 321,-398 315,-398 309,-392 309,-386 309,-386 309,-126 309,-126 309,-120 315,-114 321,-114"/>
<text text-anchor="middle" x="455.5" y="-378" font-family="Courier New" font-size="20.00" fill="#f472b6">Hermes ChatML tool_call</text>
</g>
<g id="clust3" class="cluster">
<title>cluster_anthropic</title>
<path fill="#0b1e14" stroke="#34d399" d="M622,-125C622,-125 831,-125 831,-125 837,-125 843,-131 843,-137 843,-137 843,-381 843,-381 843,-387 837,-393 831,-393 831,-393 622,-393 622,-393 616,-393 610,-387 610,-381 610,-381 610,-137 610,-137 610,-131 616,-125 622,-125"/>
<text text-anchor="middle" x="726.5" y="-373" font-family="Courier New" font-size="20.00" fill="#34d399">Anthropic tool&#45;use</text>
</g>
<!-- O1 -->
<g id="node1" class="node">
<title>O1</title>
<polygon fill="#1a1033" stroke="#22d3ee" stroke-width="2" points="283.5,-268 90.5,-268 90.5,-222 283.5,-222 283.5,-268"/>
<text text-anchor="middle" x="187" y="-248" font-family="Courier New" font-size="10.00" fill="#f5f3ff">tools: [{type:function,</text>
<text text-anchor="middle" x="187" y="-237" font-family="Courier New" font-size="10.00" fill="#f5f3ff">function:{name,parameters}}]</text>
</g>
<!-- O2 -->
<g id="node2" class="node">
<title>O2</title>
<polygon fill="#1a1033" stroke="#22d3ee" stroke-width="2" points="292.5,-179 81.5,-179 81.5,-133 292.5,-133 292.5,-179"/>
<text text-anchor="middle" x="187" y="-159" font-family="Courier New" font-size="10.00" fill="#f5f3ff">response.tool_calls[]</text>
<text text-anchor="middle" x="187" y="-148" font-family="Courier New" font-size="10.00" fill="#f5f3ff">{id, function:{name,arguments}}</text>
</g>
<!-- O1&#45;&gt;O2 -->
<g id="edge1" class="edge">
<title>O1&#45;&gt;O2</title>
<path fill="none" stroke="#a78bfa" stroke-width="1.6" d="M187,-221.6C187,-210.96 187,-198.1 187,-186.67"/>
<polygon fill="#a78bfa" stroke="#a78bfa" stroke-width="1.6" points="189.63,-186.53 187,-179.03 184.38,-186.53 189.63,-186.53"/>
</g>
<!-- NOTE -->
<g id="node9" class="node">
<title>NOTE</title>
<polygon fill="#241541" stroke="#facc15" stroke-width="2" points="575.5,-90 328.5,-90 328.5,0 581.5,0 581.5,-84 575.5,-90"/>
<polyline fill="none" stroke="#facc15" stroke-width="2" points="575.5,-90 575.5,-84 "/>
<polyline fill="none" stroke="#facc15" stroke-width="2" points="581.5,-84 575.5,-84 "/>
<text text-anchor="middle" x="455" y="-70" font-family="Courier New" font-size="10.00" fill="#f5f3ff">Same underlying idea everywhere:</text>
<text text-anchor="middle" x="455" y="-59" font-family="Courier New" font-size="10.00" fill="#f5f3ff">structured call out, structured</text>
<text text-anchor="middle" x="455" y="-48" font-family="Courier New" font-size="10.00" fill="#f5f3ff">result back in. Differences are</text>
<text text-anchor="middle" x="455" y="-37" font-family="Courier New" font-size="10.00" fill="#f5f3ff">syntax + how batching/deferral works —</text>
<text text-anchor="middle" x="455" y="-26" font-family="Courier New" font-size="10.00" fill="#f5f3ff">and that&#39;s exactly where small</text>
<text text-anchor="middle" x="455" y="-15" font-family="Courier New" font-size="10.00" fill="#f5f3ff">models break first.</text>
</g>
<!-- O2&#45;&gt;NOTE -->
<g id="edge6" class="edge">
<title>O2&#45;&gt;NOTE</title>
<path fill="none" stroke="#a78bfa" stroke-width="1.6" stroke-dasharray="5,2" d="M241.23,-132.94C269.51,-121.44 305.23,-106.91 339.34,-93.04"/>
<polygon fill="#a78bfa" stroke="#a78bfa" stroke-width="1.6" points="340.63,-95.35 346.59,-90.09 338.65,-90.49 340.63,-95.35"/>
</g>
<!-- H1 -->
<g id="node3" class="node">
<title>H1</title>
<polygon fill="#1a1033" stroke="#f472b6" stroke-width="2" points="542.5,-360 367.5,-360 367.5,-314 542.5,-314 542.5,-360"/>
<text text-anchor="middle" x="455" y="-340" font-family="Courier New" font-size="10.00" fill="#f5f3ff">&lt;tools&gt; JSON schema list</text>
<text text-anchor="middle" x="455" y="-329" font-family="Courier New" font-size="10.00" fill="#f5f3ff">embedded in system prompt</text>
</g>
<!-- H2 -->
<g id="node4" class="node">
<title>H2</title>
<polygon fill="#1a1033" stroke="#f472b6" stroke-width="2" points="551.5,-268 358.5,-268 358.5,-222 551.5,-222 551.5,-268"/>
<text text-anchor="middle" x="455" y="-248" font-family="Courier New" font-size="10.00" fill="#f5f3ff">&lt;tool_call&gt;{name, arguments}</text>
<text text-anchor="middle" x="455" y="-237" font-family="Courier New" font-size="10.00" fill="#f5f3ff">&lt;/tool_call&gt; inline in text</text>
</g>
<!-- H1&#45;&gt;H2 -->
<g id="edge2" class="edge">
<title>H1&#45;&gt;H2</title>
<path fill="none" stroke="#a78bfa" stroke-width="1.6" d="M455,-313.75C455,-302.39 455,-288.41 455,-276.1"/>
<polygon fill="#a78bfa" stroke="#a78bfa" stroke-width="1.6" points="457.63,-275.8 455,-268.3 452.38,-275.8 457.63,-275.8"/>
</g>
<!-- H3 -->
<g id="node5" class="node">
<title>H3</title>
<polygon fill="#2a0f1a" stroke="#f472b6" stroke-width="2" points="557.5,-190 352.5,-190 352.5,-122 557.5,-122 557.5,-190"/>
<text text-anchor="middle" x="455" y="-170" font-family="Courier New" font-size="10.00" fill="#f5f3ff">Deferred tools: batched via</text>
<text text-anchor="middle" x="455" y="-159" font-family="Courier New" font-size="10.00" fill="#f5f3ff">tool_call{calls:[{name,args}]}</text>
<text text-anchor="middle" x="455" y="-148" font-family="Courier New" font-size="10.00" fill="#f5f3ff">— the exact shape small models</text>
<text text-anchor="middle" x="455" y="-137" font-family="Courier New" font-size="10.00" fill="#f5f3ff">malformed this session</text>
</g>
<!-- H2&#45;&gt;H3 -->
<g id="edge3" class="edge">
<title>H2&#45;&gt;H3</title>
<path fill="none" stroke="#a78bfa" stroke-width="1.6" d="M455,-221.6C455,-214.35 455,-206.07 455,-197.91"/>
<polygon fill="#a78bfa" stroke="#a78bfa" stroke-width="1.6" points="457.63,-197.66 455,-190.16 452.38,-197.66 457.63,-197.66"/>
</g>
<!-- H3&#45;&gt;NOTE -->
<g id="edge7" class="edge">
<title>H3&#45;&gt;NOTE</title>
<path fill="none" stroke="#a78bfa" stroke-width="1.6" stroke-dasharray="5,2" d="M455,-121.7C455,-114.29 455,-106.25 455,-98.27"/>
<polygon fill="#a78bfa" stroke="#a78bfa" stroke-width="1.6" points="457.63,-97.84 455,-90.34 452.38,-97.84 457.63,-97.84"/>
</g>
<!-- A1 -->
<g id="node6" class="node">
<title>A1</title>
<polygon fill="#1a1033" stroke="#34d399" stroke-width="2" points="819.5,-355 620.5,-355 620.5,-319 819.5,-319 819.5,-355"/>
<text text-anchor="middle" x="720" y="-334.5" font-family="Courier New" font-size="10.00" fill="#f5f3ff">tools: [{name, input_schema}]</text>
</g>
<!-- A2 -->
<g id="node7" class="node">
<title>A2</title>
<polygon fill="#1a1033" stroke="#34d399" stroke-width="2" points="813.5,-268 626.5,-268 626.5,-222 813.5,-222 813.5,-268"/>
<text text-anchor="middle" x="720" y="-248" font-family="Courier New" font-size="10.00" fill="#f5f3ff">content block type=tool_use</text>
<text text-anchor="middle" x="720" y="-237" font-family="Courier New" font-size="10.00" fill="#f5f3ff">{id, name, input}</text>
</g>
<!-- A1&#45;&gt;A2 -->
<g id="edge4" class="edge">
<title>A1&#45;&gt;A2</title>
<path fill="none" stroke="#a78bfa" stroke-width="1.6" d="M720,-318.65C720,-306.49 720,-289.95 720,-275.71"/>
<polygon fill="#a78bfa" stroke="#a78bfa" stroke-width="1.6" points="722.63,-275.59 720,-268.09 717.38,-275.59 722.63,-275.59"/>
</g>
<!-- A3 -->
<g id="node8" class="node">
<title>A3</title>
<polygon fill="#1a1033" stroke="#34d399" stroke-width="2" points="822.5,-179 617.5,-179 617.5,-133 822.5,-133 822.5,-179"/>
<text text-anchor="middle" x="720" y="-159" font-family="Courier New" font-size="10.00" fill="#f5f3ff">Result sent back as</text>
<text text-anchor="middle" x="720" y="-148" font-family="Courier New" font-size="10.00" fill="#f5f3ff">type=tool_result content block</text>
</g>
<!-- A2&#45;&gt;A3 -->
<g id="edge5" class="edge">
<title>A2&#45;&gt;A3</title>
<path fill="none" stroke="#a78bfa" stroke-width="1.6" d="M720,-221.6C720,-210.96 720,-198.1 720,-186.67"/>
<polygon fill="#a78bfa" stroke="#a78bfa" stroke-width="1.6" points="722.63,-186.53 720,-179.03 717.38,-186.53 722.63,-186.53"/>
</g>
<!-- A3&#45;&gt;NOTE -->
<g id="edge8" class="edge">
<title>A3&#45;&gt;NOTE</title>
<path fill="none" stroke="#a78bfa" stroke-width="1.6" stroke-dasharray="5,2" d="M666.37,-132.94C638.42,-121.44 603.09,-106.91 569.37,-93.04"/>
<polygon fill="#a78bfa" stroke="#a78bfa" stroke-width="1.6" points="570.14,-90.52 562.2,-90.09 568.14,-95.37 570.14,-90.52"/>
</g>
</g>
</svg>
