<?xml version="1.0" encoding="UTF-8" standalone="no"?>
<!DOCTYPE svg PUBLIC "-//W3C//DTD SVG 1.1//EN"
 "http://www.w3.org/Graphics/SVG/1.1/DTD/svg11.dtd">
<!-- Generated by graphviz version 2.43.0 (0)
 -->
<!-- Title: ObservabilityPractices Pages: 1 -->
<svg width="617pt" height="787pt"
 viewBox="0.00 0.00 616.60 786.60" xmlns="http://www.w3.org/2000/svg" xmlns:xlink="http://www.w3.org/1999/xlink">
<g id="graph0" class="graph" transform="scale(1 1) rotate(0) translate(28.8 757.8)">
<title>ObservabilityPractices</title>
<polygon fill="#0d0620" stroke="transparent" points="-28.8,28.8 -28.8,-757.8 587.8,-757.8 587.8,28.8 -28.8,28.8"/>
<text text-anchor="middle" x="279.5" y="-709" font-family="Courier New" font-size="20.00" fill="#f5f3ff">27 — Local LLM Observability Practices</text>
<g id="clust1" class="cluster">
<title>cluster_daemon</title>
<path fill="#0b1a2a" stroke="#22d3ee" d="M37,-443C37,-443 222,-443 222,-443 228,-443 234,-449 234,-455 234,-455 234,-679 234,-679 234,-685 228,-691 222,-691 222,-691 37,-691 37,-691 31,-691 25,-685 25,-679 25,-679 25,-455 25,-455 25,-449 31,-443 37,-443"/>
<text text-anchor="middle" x="129.5" y="-671" font-family="Courier New" font-size="20.00" fill="#22d3ee">Daemon layer</text>
</g>
<g id="clust2" class="cluster">
<title>cluster_agent</title>
<path fill="#1e0b16" stroke="#f472b6" d="M20,-187C20,-187 239,-187 239,-187 245,-187 251,-193 251,-199 251,-199 251,-423 251,-423 251,-429 245,-435 239,-435 239,-435 20,-435 20,-435 14,-435 8,-429 8,-423 8,-423 8,-199 8,-199 8,-193 14,-187 20,-187"/>
<text text-anchor="middle" x="129.5" y="-415" font-family="Courier New" font-size="20.00" fill="#f472b6">Agent layer</text>
</g>
<g id="clust3" class="cluster">
<title>cluster_system</title>
<path fill="#0b1e14" stroke="#34d399" d="M37,-8C37,-8 222,-8 222,-8 228,-8 234,-14 234,-20 234,-20 234,-167 234,-167 234,-173 228,-179 222,-179 222,-179 37,-179 37,-179 31,-179 25,-173 25,-167 25,-167 25,-20 25,-20 25,-14 31,-8 37,-8"/>
<text text-anchor="middle" x="129.5" y="-159" font-family="Courier New" font-size="20.00" fill="#34d399">System layer</text>
</g>
<!-- D1 -->
<g id="node1" class="node">
<title>D1</title>
<polygon fill="#1a1033" stroke="black" stroke-width="2" points="212.5,-653 46.5,-653 46.5,-605 212.5,-605 212.5,-653"/>
<text text-anchor="middle" x="129.5" y="-632.2" font-family="Courier New" font-size="11.00" fill="#f5f3ff">journalctl &#45;u ollama</text>
<text text-anchor="middle" x="129.5" y="-620.2" font-family="Courier New" font-size="11.00" fill="#f5f3ff">load/evict/fit events</text>
</g>
<!-- OUT -->
<g id="node9" class="node">
<title>OUT</title>
<polygon fill="#241541" stroke="#facc15" stroke-width="2" points="553,-407 378,-407 378,-339 559,-339 559,-401 553,-407"/>
<polyline fill="none" stroke="#facc15" stroke-width="2" points="553,-407 553,-401 "/>
<polyline fill="none" stroke="#facc15" stroke-width="2" points="559,-401 553,-401 "/>
<text text-anchor="middle" x="468.5" y="-387" font-family="Courier New" font-size="10.00" fill="#f5f3ff">The finding that</text>
<text text-anchor="middle" x="468.5" y="-376" font-family="Courier New" font-size="10.00" fill="#f5f3ff">mattered most this session</text>
<text text-anchor="middle" x="468.5" y="-365" font-family="Courier New" font-size="10.00" fill="#f5f3ff">was cross&#45;referencing</text>
<text text-anchor="middle" x="468.5" y="-354" font-family="Courier New" font-size="10.00" fill="#f5f3ff">D1 timestamps against A1</text>
</g>
<!-- D1&#45;&gt;OUT -->
<g id="edge1" class="edge">
<title>D1&#45;&gt;OUT</title>
<path fill="none" stroke="#f472b6" stroke-width="1.6" d="M212.57,-609.03C225.91,-604.14 239.2,-598.19 251,-591 328.98,-543.5 399.47,-462.05 437.63,-413.29"/>
<polygon fill="#f472b6" stroke="#f472b6" stroke-width="1.6" points="439.82,-414.75 442.34,-407.22 435.67,-411.53 439.82,-414.75"/>
</g>
<!-- D2 -->
<g id="node2" class="node">
<title>D2</title>
<polygon fill="#1a1033" stroke="black" stroke-width="2" points="226,-576 33,-576 33,-528 226,-528 226,-576"/>
<text text-anchor="middle" x="129.5" y="-555.2" font-family="Courier New" font-size="11.00" fill="#f5f3ff">ollama ps</text>
<text text-anchor="middle" x="129.5" y="-543.2" font-family="Courier New" font-size="11.00" fill="#f5f3ff">what&#39;s resident RIGHT NOW</text>
</g>
<!-- D3 -->
<g id="node3" class="node">
<title>D3</title>
<polygon fill="#1a1033" stroke="black" stroke-width="2" points="226,-499 33,-499 33,-451 226,-451 226,-499"/>
<text text-anchor="middle" x="129.5" y="-478.2" font-family="Courier New" font-size="11.00" fill="#f5f3ff">nvidia&#45;smi</text>
<text text-anchor="middle" x="129.5" y="-466.2" font-family="Courier New" font-size="11.00" fill="#f5f3ff">actual VRAM + utilization</text>
</g>
<!-- A1 -->
<g id="node4" class="node">
<title>A1</title>
<polygon fill="#1a1033" stroke="black" stroke-width="2" points="223,-397 36,-397 36,-349 223,-349 223,-397"/>
<text text-anchor="middle" x="129.5" y="-376.2" font-family="Courier New" font-size="11.00" fill="#f5f3ff">~/.hermes/logs/agent.log</text>
<text text-anchor="middle" x="129.5" y="-364.2" font-family="Courier New" font-size="11.00" fill="#f5f3ff">INFO+, tool calls, turns</text>
</g>
<!-- A1&#45;&gt;OUT -->
<g id="edge2" class="edge">
<title>A1&#45;&gt;OUT</title>
<path fill="none" stroke="#f472b6" stroke-width="1.6" d="M223.03,-373C268.72,-373 323.82,-373 370.14,-373"/>
<polygon fill="#f472b6" stroke="#f472b6" stroke-width="1.6" points="370.29,-375.63 377.79,-373 370.29,-370.38 370.29,-375.63"/>
</g>
<!-- A2 -->
<g id="node5" class="node">
<title>A2</title>
<polygon fill="#1a1033" stroke="black" stroke-width="2" points="243,-320 16,-320 16,-272 243,-272 243,-320"/>
<text text-anchor="middle" x="129.5" y="-299.2" font-family="Courier New" font-size="11.00" fill="#f5f3ff">~/.hermes/logs/errors.log</text>
<text text-anchor="middle" x="129.5" y="-287.2" font-family="Courier New" font-size="11.00" fill="#f5f3ff">WARNING+, the ones that matter</text>
</g>
<!-- A3 -->
<g id="node6" class="node">
<title>A3</title>
<polygon fill="#1a1033" stroke="black" stroke-width="2" points="212.5,-243 46.5,-243 46.5,-195 212.5,-195 212.5,-243"/>
<text text-anchor="middle" x="129.5" y="-222.2" font-family="Courier New" font-size="11.00" fill="#f5f3ff">hermes insights</text>
<text text-anchor="middle" x="129.5" y="-210.2" font-family="Courier New" font-size="11.00" fill="#f5f3ff">aggregate usage stats</text>
</g>
<!-- S1 -->
<g id="node7" class="node">
<title>S1</title>
<polygon fill="#1a1033" stroke="black" stroke-width="2" points="226,-141 33,-141 33,-93 226,-93 226,-141"/>
<text text-anchor="middle" x="129.5" y="-120.2" font-family="Courier New" font-size="11.00" fill="#f5f3ff">ss &#45;tlnp</text>
<text text-anchor="middle" x="129.5" y="-108.2" font-family="Courier New" font-size="11.00" fill="#f5f3ff">what&#39;s actually listening</text>
</g>
<!-- S1&#45;&gt;OUT -->
<g id="edge3" class="edge">
<title>S1&#45;&gt;OUT</title>
<path fill="none" stroke="#f472b6" stroke-width="1.6" stroke-dasharray="5,2" d="M183.43,-141.14C205.08,-151.9 229.93,-165.43 251,-180 318.39,-226.59 387.56,-291.91 429.04,-333.34"/>
<polygon fill="#f472b6" stroke="#f472b6" stroke-width="1.6" points="427.3,-335.32 434.46,-338.77 431.02,-331.61 427.3,-335.32"/>
<text text-anchor="middle" x="310.5" y="-273" font-family="Courier New" font-size="10.00" fill="#facc15">found the stray</text>
<text text-anchor="middle" x="310.5" y="-262" font-family="Courier New" font-size="10.00" fill="#facc15">second daemon</text>
</g>
<!-- S2 -->
<g id="node8" class="node">
<title>S2</title>
<polygon fill="#1a1033" stroke="black" stroke-width="2" points="219.5,-64 39.5,-64 39.5,-16 219.5,-16 219.5,-64"/>
<text text-anchor="middle" x="129.5" y="-43.2" font-family="Courier New" font-size="11.00" fill="#f5f3ff">systemctl list&#45;units</text>
<text text-anchor="middle" x="129.5" y="-31.2" font-family="Courier New" font-size="11.00" fill="#f5f3ff">what&#39;s actually running</text>
</g>
</g>
</svg>
