<?xml version="1.0" encoding="UTF-8" standalone="no"?>
<!DOCTYPE svg PUBLIC "-//W3C//DTD SVG 1.1//EN"
 "http://www.w3.org/Graphics/SVG/1.1/DTD/svg11.dtd">
<!-- Generated by graphviz version 2.43.0 (0)
 -->
<!-- Title: LocalVsCloud Pages: 1 -->
<svg width="675pt" height="805pt"
 viewBox="0.00 0.00 674.60 804.60" xmlns="http://www.w3.org/2000/svg" xmlns:xlink="http://www.w3.org/1999/xlink">
<g id="graph0" class="graph" transform="scale(1 1) rotate(0) translate(28.8 775.8)">
<title>LocalVsCloud</title>
<polygon fill="#0d0620" stroke="transparent" points="-28.8,28.8 -28.8,-775.8 645.8,-775.8 645.8,28.8 -28.8,28.8"/>
<text text-anchor="middle" x="308.5" y="-727" font-family="Courier New" font-size="20.00" fill="#f5f3ff">29 — Local vs. Cloud Inference: Decision Framework</text>
<!-- Start -->
<g id="node1" class="node">
<title>Start</title>
<polygon fill="#1a1033" stroke="#22d3ee" stroke-width="2" points="497,-717 364,-717 364,-681 497,-681 497,-717"/>
<text text-anchor="middle" x="430.5" y="-696.2" font-family="Courier New" font-size="11.00" fill="#f5f3ff">New task arrives</text>
</g>
<!-- Q1 -->
<g id="node2" class="node">
<title>Q1</title>
<polygon fill="#241541" stroke="#facc15" stroke-width="2" points="430.5,-648 291.5,-600 430.5,-552 569.5,-600 430.5,-648"/>
<text text-anchor="middle" x="430.5" y="-603.2" font-family="Courier New" font-size="11.00" fill="#f5f3ff">Does data need to</text>
<text text-anchor="middle" x="430.5" y="-591.2" font-family="Courier New" font-size="11.00" fill="#f5f3ff">stay on&#45;box?</text>
</g>
<!-- Start&#45;&gt;Q1 -->
<g id="edge1" class="edge">
<title>Start&#45;&gt;Q1</title>
<path fill="none" stroke="#f472b6" stroke-width="1.6" d="M430.5,-680.66C430.5,-673.51 430.5,-664.79 430.5,-655.77"/>
<polygon fill="#f472b6" stroke="#f472b6" stroke-width="1.6" points="433.13,-655.66 430.5,-648.16 427.88,-655.66 433.13,-655.66"/>
</g>
<!-- Q2 -->
<g id="node3" class="node">
<title>Q2</title>
<polygon fill="#241541" stroke="#facc15" stroke-width="2" points="315.5,-509 128.5,-449 315.5,-389 502.5,-449 315.5,-509"/>
<text text-anchor="middle" x="315.5" y="-458.2" font-family="Courier New" font-size="11.00" fill="#f5f3ff">Is task within local</text>
<text text-anchor="middle" x="315.5" y="-446.2" font-family="Courier New" font-size="11.00" fill="#f5f3ff">models&#39; real capability?</text>
<text text-anchor="middle" x="315.5" y="-434.2" font-family="Courier New" font-size="11.00" fill="#f5f3ff">(see appendix 15, 25)</text>
</g>
<!-- Q1&#45;&gt;Q2 -->
<g id="edge2" class="edge">
<title>Q1&#45;&gt;Q2</title>
<path fill="none" stroke="#f472b6" stroke-width="1.6" d="M401.78,-561.79C388.21,-544.21 371.76,-522.9 356.88,-503.62"/>
<polygon fill="#f472b6" stroke="#f472b6" stroke-width="1.6" points="358.77,-501.77 352.11,-497.44 354.62,-504.98 358.77,-501.77"/>
<text text-anchor="middle" x="441" y="-528" font-family="Courier New" font-size="10.00" fill="#facc15">yes, must stay local</text>
</g>
<!-- CLOUD -->
<g id="node6" class="node">
<title>CLOUD</title>
<polygon fill="#1a1033" stroke="#a78bfa" stroke-width="2" points="541,-161 300,-161 300,-101 541,-101 541,-161"/>
<text text-anchor="middle" x="420.5" y="-140.2" font-family="Courier New" font-size="11.00" fill="#f5f3ff">Escalate to cloud</text>
<text text-anchor="middle" x="420.5" y="-128.2" font-family="Courier New" font-size="11.00" fill="#f5f3ff">(this session: claude&#45;sonnet&#45;4&#45;6</text>
<text text-anchor="middle" x="420.5" y="-116.2" font-family="Courier New" font-size="11.00" fill="#f5f3ff">used twice per prior insights)</text>
</g>
<!-- Q1&#45;&gt;CLOUD -->
<g id="edge3" class="edge">
<title>Q1&#45;&gt;CLOUD</title>
<path fill="none" stroke="#f472b6" stroke-width="1.6" d="M478.21,-568.02C489.44,-558.85 500.47,-548.01 508.5,-536 534.69,-496.87 518.07,-421.04 516.5,-389 512.94,-316.29 528.95,-293 500.5,-226 491.1,-203.85 474.55,-183.04 458.93,-166.66"/>
<polygon fill="#f472b6" stroke="#f472b6" stroke-width="1.6" points="460.8,-164.82 453.68,-161.28 457.04,-168.48 460.8,-164.82"/>
<text text-anchor="middle" x="556" y="-365" font-family="Courier New" font-size="10.00" fill="#facc15">no constraint</text>
</g>
<!-- Q3 -->
<g id="node4" class="node">
<title>Q3</title>
<polygon fill="#241541" stroke="#facc15" stroke-width="2" points="187.5,-346 21.5,-286 187.5,-226 353.5,-286 187.5,-346"/>
<text text-anchor="middle" x="187.5" y="-295.2" font-family="Courier New" font-size="11.00" fill="#f5f3ff">Is latency/throughput</text>
<text text-anchor="middle" x="187.5" y="-283.2" font-family="Courier New" font-size="11.00" fill="#f5f3ff">acceptable at current</text>
<text text-anchor="middle" x="187.5" y="-271.2" font-family="Courier New" font-size="11.00" fill="#f5f3ff">CPU/GPU split?</text>
</g>
<!-- Q2&#45;&gt;Q3 -->
<g id="edge4" class="edge">
<title>Q2&#45;&gt;Q3</title>
<path fill="none" stroke="#f472b6" stroke-width="1.6" d="M277.79,-400.57C262.42,-381.23 244.6,-358.82 228.87,-339.04"/>
<polygon fill="#f472b6" stroke="#f472b6" stroke-width="1.6" points="230.78,-337.23 224.06,-332.99 226.67,-340.49 230.78,-337.23"/>
<text text-anchor="middle" x="265" y="-365" font-family="Courier New" font-size="10.00" fill="#facc15">yes</text>
</g>
<!-- Q2&#45;&gt;CLOUD -->
<g id="edge5" class="edge">
<title>Q2&#45;&gt;CLOUD</title>
<path fill="none" stroke="#f472b6" stroke-width="1.6" d="M343.9,-397.93C352.32,-381.71 361,-363.41 367.5,-346 390.09,-285.45 405.94,-211.67 414.11,-168.46"/>
<polygon fill="#f472b6" stroke="#f472b6" stroke-width="1.6" points="416.71,-168.87 415.5,-161.01 411.54,-167.9 416.71,-168.87"/>
<text text-anchor="middle" x="448" y="-289" font-family="Courier New" font-size="10.00" fill="#facc15">no — needs</text>
<text text-anchor="middle" x="448" y="-278" font-family="Courier New" font-size="10.00" fill="#facc15">more capability</text>
</g>
<!-- LOCAL -->
<g id="node5" class="node">
<title>LOCAL</title>
<polygon fill="#0f2a1a" stroke="#34d399" stroke-width="2" points="270.5,-155 56.5,-155 56.5,-107 270.5,-107 270.5,-155"/>
<text text-anchor="middle" x="163.5" y="-134.2" font-family="Courier New" font-size="11.00" fill="#f5f3ff">Run local</text>
<text text-anchor="middle" x="163.5" y="-122.2" font-family="Courier New" font-size="11.00" fill="#f5f3ff">(this session&#39;s whole stack)</text>
</g>
<!-- Q3&#45;&gt;LOCAL -->
<g id="edge6" class="edge">
<title>Q3&#45;&gt;LOCAL</title>
<path fill="none" stroke="#f472b6" stroke-width="1.6" d="M178.7,-228.9C175.2,-206.56 171.3,-181.72 168.33,-162.78"/>
<polygon fill="#f472b6" stroke="#f472b6" stroke-width="1.6" points="170.91,-162.32 167.16,-155.31 165.73,-163.13 170.91,-162.32"/>
<text text-anchor="middle" x="185" y="-191" font-family="Courier New" font-size="10.00" fill="#facc15">yes</text>
</g>
<!-- Q3&#45;&gt;CLOUD -->
<g id="edge7" class="edge">
<title>Q3&#45;&gt;CLOUD</title>
<path fill="none" stroke="#f472b6" stroke-width="1.6" d="M212.42,-234.76C224.9,-214.2 241.79,-191.8 262.5,-177 271.83,-170.33 282.12,-164.65 292.84,-159.81"/>
<polygon fill="#f472b6" stroke="#f472b6" stroke-width="1.6" points="294.1,-162.12 299.95,-156.74 292.02,-157.3 294.1,-162.12"/>
<text text-anchor="middle" x="326" y="-202" font-family="Courier New" font-size="10.00" fill="#facc15">too slow —</text>
<text text-anchor="middle" x="326" y="-191" font-family="Courier New" font-size="10.00" fill="#facc15">fix infra first,</text>
<text text-anchor="middle" x="326" y="-180" font-family="Courier New" font-size="10.00" fill="#facc15">or escalate this once</text>
</g>
<!-- NOTE -->
<g id="node7" class="node">
<title>NOTE</title>
<polygon fill="#2a0f1a" stroke="#f87171" stroke-width="2" points="278,-68 43,-68 43,0 284,0 284,-62 278,-68"/>
<polyline fill="none" stroke="#f87171" stroke-width="2" points="278,-68 278,-62 "/>
<polyline fill="none" stroke="#f87171" stroke-width="2" points="284,-62 278,-62 "/>
<text text-anchor="middle" x="163.5" y="-48" font-family="Courier New" font-size="10.00" fill="#f5f3ff">Sunk&#45;cost trap to avoid:</text>
<text text-anchor="middle" x="163.5" y="-37" font-family="Courier New" font-size="10.00" fill="#f5f3ff">&#39;we already fixed the GPU thrashing,</text>
<text text-anchor="middle" x="163.5" y="-26" font-family="Courier New" font-size="10.00" fill="#f5f3ff">so it must be worth running locally&#39;</text>
<text text-anchor="middle" x="163.5" y="-15" font-family="Courier New" font-size="10.00" fill="#f5f3ff">isn&#39;t a reason on its own</text>
</g>
<!-- LOCAL&#45;&gt;NOTE -->
<g id="edge8" class="edge">
<title>LOCAL&#45;&gt;NOTE</title>
<path fill="none" stroke="#f472b6" stroke-width="1.6" stroke-dasharray="5,2" d="M163.5,-106.52C163.5,-97.23 163.5,-86.29 163.5,-75.79"/>
<polygon fill="#f472b6" stroke="#f472b6" stroke-width="1.6" points="166.13,-75.75 163.5,-68.25 160.88,-75.75 166.13,-75.75"/>
</g>
</g>
</svg>
