<?xml version="1.0" encoding="UTF-8" standalone="no"?>
<!DOCTYPE svg PUBLIC "-//W3C//DTD SVG 1.1//EN"
 "http://www.w3.org/Graphics/SVG/1.1/DTD/svg11.dtd">
<!-- Generated by graphviz version 2.43.0 (0)
 -->
<!-- Title: anthropic_fix_architecture Pages: 1 -->
<svg width="1347pt" height="162pt"
 viewBox="0.00 0.00 1347.19 162.00" xmlns="http://www.w3.org/2000/svg" xmlns:xlink="http://www.w3.org/1999/xlink">
<g id="graph0" class="graph" transform="scale(1 1) rotate(0) translate(4 158)">
<title>anthropic_fix_architecture</title>
<polygon fill="#0d1117" stroke="transparent" points="-4,4 -4,-158 1343.19,-158 1343.19,4 -4,4"/>
<text text-anchor="start" x="550.09" y="-135" font-family="Helvetica,sans-Serif" font-weight="bold" font-size="20.00" fill="#e6edf3">Fixed Judge Call Path</text>
<!-- judge_goal -->
<g id="node1" class="node">
<title>judge_goal</title>
<path fill="#161b22" stroke="#00e5ff" stroke-width="2" d="M196,-116.5C196,-116.5 12,-116.5 12,-116.5 6,-116.5 0,-110.5 0,-104.5 0,-104.5 0,-90.5 0,-90.5 0,-84.5 6,-78.5 12,-78.5 12,-78.5 196,-78.5 196,-78.5 202,-78.5 208,-84.5 208,-90.5 208,-90.5 208,-104.5 208,-104.5 208,-110.5 202,-116.5 196,-116.5"/>
<text text-anchor="middle" x="104" y="-101.3" font-family="Helvetica,sans-Serif" font-size="14.00" fill="#e6edf3">judge_goal()</text>
<text text-anchor="middle" x="104" y="-86.3" font-family="Helvetica,sans-Serif" font-size="14.00" fill="#e6edf3">call_llm(task=&quot;goal_judge&quot;)</text>
</g>
<!-- cfg -->
<g id="node2" class="node">
<title>cfg</title>
<path fill="#161b22" stroke="#39ff14" stroke-width="2" d="M496,-124C496,-124 257,-124 257,-124 251,-124 245,-118 245,-112 245,-112 245,-83 245,-83 245,-77 251,-71 257,-71 257,-71 496,-71 496,-71 502,-71 508,-77 508,-83 508,-83 508,-112 508,-112 508,-118 502,-124 496,-124"/>
<text text-anchor="middle" x="376.5" y="-108.8" font-family="Helvetica,sans-Serif" font-size="14.00" fill="#e6edf3">auxiliary.goal_judge:</text>
<text text-anchor="middle" x="376.5" y="-93.8" font-family="Helvetica,sans-Serif" font-size="14.00" fill="#e6edf3">provider: anthropic</text>
<text text-anchor="middle" x="376.5" y="-78.8" font-family="Helvetica,sans-Serif" font-size="14.00" fill="#e6edf3">model: claude&#45;haiku&#45;4&#45;5&#45;20251001</text>
</g>
<!-- judge_goal&#45;&gt;cfg -->
<g id="edge1" class="edge">
<title>judge_goal&#45;&gt;cfg</title>
<path fill="none" stroke="#00e5ff" stroke-width="1.5" d="M208.04,-97.5C217.48,-97.5 227.15,-97.5 236.85,-97.5"/>
<polygon fill="#00e5ff" stroke="#00e5ff" stroke-width="1.5" points="236.99,-100.3 244.99,-97.5 236.99,-94.7 236.99,-100.3"/>
</g>
<!-- plugin -->
<g id="node3" class="node">
<title>plugin</title>
<path fill="#161b22" stroke="#ff2fd0" stroke-width="2" d="M791,-68C791,-68 625,-68 625,-68 619,-68 613,-62 613,-56 613,-56 613,-27 613,-27 613,-21 619,-15 625,-15 625,-15 791,-15 791,-15 797,-15 803,-21 803,-27 803,-27 803,-56 803,-56 803,-62 797,-68 791,-68"/>
<text text-anchor="middle" x="708" y="-52.8" font-family="Helvetica,sans-Serif" font-size="14.00" fill="#e6edf3">AnthropicProfile</text>
<text text-anchor="middle" x="708" y="-37.8" font-family="Helvetica,sans-Serif" font-size="14.00" fill="#e6edf3">plugins/model&#45;providers/</text>
<text text-anchor="middle" x="708" y="-22.8" font-family="Helvetica,sans-Serif" font-size="14.00" fill="#e6edf3">anthropic/__init__.py</text>
</g>
<!-- cfg&#45;&gt;plugin -->
<g id="edge2" class="edge">
<title>cfg&#45;&gt;plugin</title>
<path fill="none" stroke="#00e5ff" stroke-width="1.5" d="M508.2,-75.29C540.28,-69.83 574.16,-64.08 604.69,-58.89"/>
<polygon fill="#00e5ff" stroke="#00e5ff" stroke-width="1.5" points="605.37,-61.61 612.79,-57.51 604.43,-56.09 605.37,-61.61"/>
</g>
<!-- api -->
<g id="node5" class="node">
<title>api</title>
<path fill="#161b22" stroke="#00e5ff" stroke-width="2" d="M1013,-68C1013,-68 852,-68 852,-68 846,-68 840,-62 840,-56 840,-56 840,-27 840,-27 840,-21 846,-15 852,-15 852,-15 1013,-15 1013,-15 1019,-15 1025,-21 1025,-27 1025,-27 1025,-56 1025,-56 1025,-62 1019,-68 1013,-68"/>
<text text-anchor="middle" x="932.5" y="-52.8" font-family="Helvetica,sans-Serif" font-size="14.00" fill="#e6edf3">api.anthropic.com</text>
<text text-anchor="middle" x="932.5" y="-37.8" font-family="Helvetica,sans-Serif" font-size="14.00" fill="#e6edf3">anthropic_messages API</text>
<text text-anchor="middle" x="932.5" y="-22.8" font-family="Helvetica,sans-Serif" font-size="14.00" fill="#e6edf3">x&#45;api&#45;key / Bearer</text>
</g>
<!-- plugin&#45;&gt;api -->
<g id="edge4" class="edge">
<title>plugin&#45;&gt;api</title>
<path fill="none" stroke="#00e5ff" stroke-width="1.5" d="M803.04,-41.5C812.58,-41.5 822.3,-41.5 831.9,-41.5"/>
<polygon fill="#00e5ff" stroke="#00e5ff" stroke-width="1.5" points="831.93,-44.3 839.93,-41.5 831.93,-38.7 831.93,-44.3"/>
</g>
<!-- env -->
<g id="node4" class="node">
<title>env</title>
<path fill="#161b22" stroke="#ffd400" stroke-width="2" d="M481,-53C481,-53 272,-53 272,-53 266,-53 260,-47 260,-41 260,-41 260,-12 260,-12 260,-6 266,0 272,0 272,0 481,0 481,0 487,0 493,-6 493,-12 493,-12 493,-41 493,-41 493,-47 487,-53 481,-53"/>
<text text-anchor="middle" x="376.5" y="-37.8" font-family="Helvetica,sans-Serif" font-size="14.00" fill="#e6edf3">~/.hermes/.env</text>
<text text-anchor="middle" x="376.5" y="-22.8" font-family="Helvetica,sans-Serif" font-size="14.00" fill="#e6edf3">CLAUDE_CODE_OAUTH_TOKEN</text>
<text text-anchor="middle" x="376.5" y="-7.8" font-family="Helvetica,sans-Serif" font-size="14.00" fill="#e6edf3">(chmod 600)</text>
</g>
<!-- env&#45;&gt;plugin -->
<g id="edge3" class="edge">
<title>env&#45;&gt;plugin</title>
<path fill="none" stroke="#00e5ff" stroke-width="1.5" d="M493.21,-31.77C529.43,-33.42 569.13,-35.22 604.39,-36.83"/>
<polygon fill="#00e5ff" stroke="#00e5ff" stroke-width="1.5" points="604.66,-39.64 612.78,-37.21 604.91,-34.05 604.66,-39.64"/>
<text text-anchor="middle" x="560.5" y="-40.3" font-family="Helvetica,sans-Serif" font-size="14.00" fill="#8b949e">credential</text>
</g>
<!-- verdict -->
<g id="node6" class="node">
<title>verdict</title>
<ellipse fill="#161b22" stroke="#39ff14" stroke-width="2" cx="1200.59" cy="-41.5" rx="138.69" ry="37.45"/>
<text text-anchor="middle" x="1200.59" y="-52.8" font-family="Helvetica,sans-Serif" font-size="14.00" fill="#e6edf3">strict JSON verdict</text>
<text text-anchor="middle" x="1200.59" y="-37.8" font-family="Helvetica,sans-Serif" font-size="14.00" fill="#e6edf3">DONE / BLOCKED / WAIT /</text>
<text text-anchor="middle" x="1200.59" y="-22.8" font-family="Helvetica,sans-Serif" font-size="14.00" fill="#e6edf3">continue</text>
</g>
<!-- api&#45;&gt;verdict -->
<g id="edge5" class="edge">
<title>api&#45;&gt;verdict</title>
<path fill="none" stroke="#00e5ff" stroke-width="1.5" d="M1025.07,-41.5C1034.35,-41.5 1043.93,-41.5 1053.6,-41.5"/>
<polygon fill="#00e5ff" stroke="#00e5ff" stroke-width="1.5" points="1053.74,-44.3 1061.74,-41.5 1053.74,-38.7 1053.74,-44.3"/>
</g>
</g>
</svg>
