<?xml version="1.0" encoding="UTF-8" standalone="no"?>
<!DOCTYPE svg PUBLIC "-//W3C//DTD SVG 1.1//EN"
 "http://www.w3.org/Graphics/SVG/1.1/DTD/svg11.dtd">
<!-- Generated by graphviz version 2.43.0 (0)
 -->
<!-- Title: credential_priority Pages: 1 -->
<svg width="478pt" height="656pt"
 viewBox="0.00 0.00 478.00 655.91" xmlns="http://www.w3.org/2000/svg" xmlns:xlink="http://www.w3.org/1999/xlink">
<g id="graph0" class="graph" transform="scale(1 1) rotate(0) translate(4 651.91)">
<title>credential_priority</title>
<polygon fill="#0d1117" stroke="transparent" points="-4,4 -4,-651.91 474,-651.91 474,4 -4,4"/>
<text text-anchor="start" x="8" y="-628.91" font-family="Helvetica,sans-Serif" font-weight="bold" font-size="20.00" fill="#e6edf3">resolve_anthropic_token() Priority Order</text>
<!-- start -->
<g id="node1" class="node">
<title>start</title>
<ellipse fill="#161b22" stroke="#39ff14" stroke-width="2" cx="316.25" cy="-591.04" rx="137.36" ry="26.74"/>
<text text-anchor="middle" x="316.25" y="-594.84" font-family="Helvetica,sans-Serif" font-size="14.00" fill="#e6edf3">resolve_anthropic_token()</text>
<text text-anchor="middle" x="316.25" y="-579.84" font-family="Helvetica,sans-Serif" font-size="14.00" fill="#e6edf3">called</text>
</g>
<!-- p1 -->
<g id="node2" class="node">
<title>p1</title>
<path fill="#161b22" stroke="#39ff14" stroke-width="2" d="M420.75,-527.17C420.75,-527.17 211.75,-527.17 211.75,-527.17 205.75,-527.17 199.75,-521.17 199.75,-515.17 199.75,-515.17 199.75,-486.17 199.75,-486.17 199.75,-480.17 205.75,-474.17 211.75,-474.17 211.75,-474.17 420.75,-474.17 420.75,-474.17 426.75,-474.17 432.75,-480.17 432.75,-486.17 432.75,-486.17 432.75,-515.17 432.75,-515.17 432.75,-521.17 426.75,-527.17 420.75,-527.17"/>
<text text-anchor="middle" x="316.25" y="-511.97" font-family="Helvetica,sans-Serif" font-size="14.00" fill="#e6edf3">1. ANTHROPIC_TOKEN /</text>
<text text-anchor="middle" x="316.25" y="-496.97" font-family="Helvetica,sans-Serif" font-size="14.00" fill="#e6edf3">CLAUDE_CODE_OAUTH_TOKEN</text>
<text text-anchor="middle" x="316.25" y="-481.97" font-family="Helvetica,sans-Serif" font-size="14.00" fill="#e6edf3">env vars</text>
</g>
<!-- start&#45;&gt;p1 -->
<g id="edge1" class="edge">
<title>start&#45;&gt;p1</title>
<path fill="none" stroke="#00e5ff" stroke-width="1.5" d="M316.25,-564C316.25,-555.02 316.25,-544.83 316.25,-535.34"/>
<polygon fill="#00e5ff" stroke="#00e5ff" stroke-width="1.5" points="319.05,-535.21 316.25,-527.21 313.45,-535.21 319.05,-535.21"/>
</g>
<!-- p2 -->
<g id="node3" class="node">
<title>p2</title>
<path fill="#161b22" stroke="#00e5ff" stroke-width="2" d="M334.75,-423.17C334.75,-423.17 179.75,-423.17 179.75,-423.17 173.75,-423.17 167.75,-417.17 167.75,-411.17 167.75,-411.17 167.75,-397.17 167.75,-397.17 167.75,-391.17 173.75,-385.17 179.75,-385.17 179.75,-385.17 334.75,-385.17 334.75,-385.17 340.75,-385.17 346.75,-391.17 346.75,-397.17 346.75,-397.17 346.75,-411.17 346.75,-411.17 346.75,-417.17 340.75,-423.17 334.75,-423.17"/>
<text text-anchor="middle" x="257.25" y="-407.97" font-family="Helvetica,sans-Serif" font-size="14.00" fill="#e6edf3">2. ANTHROPIC_API_KEY</text>
<text text-anchor="middle" x="257.25" y="-392.97" font-family="Helvetica,sans-Serif" font-size="14.00" fill="#e6edf3">env var</text>
</g>
<!-- p1&#45;&gt;p2 -->
<g id="edge3" class="edge">
<title>p1&#45;&gt;p2</title>
<path fill="none" stroke="#00e5ff" stroke-width="1.5" d="M300.13,-473.84C291.66,-460.29 281.34,-443.75 272.94,-430.29"/>
<polygon fill="#00e5ff" stroke="#00e5ff" stroke-width="1.5" points="275.11,-428.48 268.5,-423.18 270.36,-431.45 275.11,-428.48"/>
<text text-anchor="middle" x="304.75" y="-444.97" font-family="Helvetica,sans-Serif" font-size="14.00" fill="#8b949e">miss</text>
</g>
<!-- found -->
<g id="node6" class="node">
<title>found</title>
<ellipse fill="#161b22" stroke="#39ff14" stroke-width="2" cx="305.25" cy="-48.08" rx="84.29" ry="48.17"/>
<text text-anchor="middle" x="305.25" y="-66.88" font-family="Helvetica,sans-Serif" font-size="14.00" fill="#e6edf3">token found</text>
<text text-anchor="middle" x="305.25" y="-51.88" font-family="Helvetica,sans-Serif" font-size="14.00" fill="#e6edf3">(this session:</text>
<text text-anchor="middle" x="305.25" y="-36.88" font-family="Helvetica,sans-Serif" font-size="14.00" fill="#e6edf3">sk&#45;ant&#45;oat01...</text>
<text text-anchor="middle" x="305.25" y="-21.88" font-family="Helvetica,sans-Serif" font-size="14.00" fill="#e6edf3">via step 1)</text>
</g>
<!-- p1&#45;&gt;found -->
<g id="edge2" class="edge">
<title>p1&#45;&gt;found</title>
<path fill="none" stroke="#00e5ff" stroke-width="1.5" d="M343.33,-473.79C358.84,-456.13 375.25,-431.28 375.25,-405.17 375.25,-405.17 375.25,-405.17 375.25,-202.67 375.25,-166.06 358.58,-128.61 341.52,-99.86"/>
<polygon fill="#00e5ff" stroke="#00e5ff" stroke-width="1.5" points="343.73,-98.12 337.18,-92.74 338.95,-101.03 343.73,-98.12"/>
<text text-anchor="middle" x="421.75" y="-311.47" font-family="Helvetica,sans-Serif" font-size="14.00" fill="#8b949e">hit</text>
<text text-anchor="middle" x="421.75" y="-296.47" font-family="Helvetica,sans-Serif" font-size="14.00" fill="#8b949e">(this session)</text>
</g>
<!-- p3 -->
<g id="node4" class="node">
<title>p3</title>
<path fill="#161b22" stroke="#00e5ff" stroke-width="2" d="M289.75,-334.17C289.75,-334.17 126.75,-334.17 126.75,-334.17 120.75,-334.17 114.75,-328.17 114.75,-322.17 114.75,-322.17 114.75,-293.17 114.75,-293.17 114.75,-287.17 120.75,-281.17 126.75,-281.17 126.75,-281.17 289.75,-281.17 289.75,-281.17 295.75,-281.17 301.75,-287.17 301.75,-293.17 301.75,-293.17 301.75,-322.17 301.75,-322.17 301.75,-328.17 295.75,-334.17 289.75,-334.17"/>
<text text-anchor="middle" x="208.25" y="-318.97" font-family="Helvetica,sans-Serif" font-size="14.00" fill="#e6edf3">3. Hermes&#45;owned OAuth</text>
<text text-anchor="middle" x="208.25" y="-303.97" font-family="Helvetica,sans-Serif" font-size="14.00" fill="#e6edf3">grants (auth.json</text>
<text text-anchor="middle" x="208.25" y="-288.97" font-family="Helvetica,sans-Serif" font-size="14.00" fill="#e6edf3">credential pool)</text>
</g>
<!-- p2&#45;&gt;p3 -->
<g id="edge5" class="edge">
<title>p2&#45;&gt;p3</title>
<path fill="none" stroke="#00e5ff" stroke-width="1.5" d="M247.8,-384.95C241.46,-372.71 232.91,-356.22 225.38,-341.71"/>
<polygon fill="#00e5ff" stroke="#00e5ff" stroke-width="1.5" points="227.73,-340.15 221.56,-334.33 222.76,-342.72 227.73,-340.15"/>
<text text-anchor="middle" x="254.75" y="-355.97" font-family="Helvetica,sans-Serif" font-size="14.00" fill="#8b949e">miss</text>
</g>
<!-- p2&#45;&gt;found -->
<g id="edge4" class="edge">
<title>p2&#45;&gt;found</title>
<path fill="none" stroke="#00e5ff" stroke-width="1.5" d="M277,-385.07C289.47,-372.24 304.46,-353.87 311.25,-334.17 337.6,-257.73 327.89,-162.79 317.4,-104.07"/>
<polygon fill="#00e5ff" stroke="#00e5ff" stroke-width="1.5" points="320.12,-103.39 315.92,-96.03 314.62,-104.41 320.12,-103.39"/>
<text text-anchor="middle" x="335.75" y="-251.97" font-family="Helvetica,sans-Serif" font-size="14.00" fill="#8b949e">hit</text>
</g>
<!-- p4 -->
<g id="node5" class="node">
<title>p4</title>
<path fill="#161b22" stroke="#ff5555" stroke-width="2" d="M217.75,-230.17C217.75,-230.17 22.75,-230.17 22.75,-230.17 16.75,-230.17 10.75,-224.17 10.75,-218.17 10.75,-218.17 10.75,-189.17 10.75,-189.17 10.75,-183.17 16.75,-177.17 22.75,-177.17 22.75,-177.17 217.75,-177.17 217.75,-177.17 223.75,-177.17 229.75,-183.17 229.75,-189.17 229.75,-189.17 229.75,-218.17 229.75,-218.17 229.75,-224.17 223.75,-230.17 217.75,-230.17"/>
<text text-anchor="middle" x="120.25" y="-214.97" font-family="Helvetica,sans-Serif" font-size="14.00" fill="#e6edf3">4. ~/.claude/.credentials.json</text>
<text text-anchor="middle" x="120.25" y="-199.97" font-family="Helvetica,sans-Serif" font-size="14.00" fill="#e6edf3">/ macOS Keychain</text>
<text text-anchor="middle" x="120.25" y="-184.97" font-family="Helvetica,sans-Serif" font-size="14.00" fill="#e6edf3">(borrowed fallback)</text>
</g>
<!-- p3&#45;&gt;p4 -->
<g id="edge7" class="edge">
<title>p3&#45;&gt;p4</title>
<path fill="none" stroke="#00e5ff" stroke-width="1.5" d="M186.04,-280.93C174.48,-267.52 160.22,-250.99 147.94,-236.76"/>
<polygon fill="#00e5ff" stroke="#00e5ff" stroke-width="1.5" points="149.79,-234.63 142.45,-230.4 145.55,-238.28 149.79,-234.63"/>
<text text-anchor="middle" x="185.75" y="-251.97" font-family="Helvetica,sans-Serif" font-size="14.00" fill="#8b949e">miss</text>
</g>
<!-- p3&#45;&gt;found -->
<g id="edge6" class="edge">
<title>p3&#45;&gt;found</title>
<path fill="none" stroke="#00e5ff" stroke-width="1.5" d="M219.25,-281.01C231.67,-251.73 252.24,-202.32 268.25,-159.17 274.91,-141.22 281.72,-121.44 287.65,-103.65"/>
<polygon fill="#00e5ff" stroke="#00e5ff" stroke-width="1.5" points="290.45,-104.11 290.31,-95.64 285.14,-102.35 290.45,-104.11"/>
<text text-anchor="middle" x="269.75" y="-199.97" font-family="Helvetica,sans-Serif" font-size="14.00" fill="#8b949e">hit</text>
</g>
<!-- p4&#45;&gt;found -->
<g id="edge8" class="edge">
<title>p4&#45;&gt;found</title>
<path fill="none" stroke="#00e5ff" stroke-width="1.5" d="M113.26,-177C109.67,-157.91 108.37,-132.16 121.25,-114.17 142.79,-84.06 179.45,-67.8 214.4,-59.05"/>
<polygon fill="#00e5ff" stroke="#00e5ff" stroke-width="1.5" points="215.15,-61.75 222.3,-57.19 213.87,-56.3 215.15,-61.75"/>
<text text-anchor="middle" x="194.75" y="-147.97" font-family="Helvetica,sans-Serif" font-size="14.00" fill="#8b949e">hit</text>
<text text-anchor="middle" x="194.75" y="-132.97" font-family="Helvetica,sans-Serif" font-size="14.00" fill="#8b949e">(not used here —</text>
<text text-anchor="middle" x="194.75" y="-117.97" font-family="Helvetica,sans-Serif" font-size="14.00" fill="#8b949e">deliberately avoided)</text>
</g>
<!-- none -->
<g id="node7" class="node">
<title>none</title>
<path fill="#161b22" stroke="#ff5555" stroke-width="2" d="M114.75,-67.08C114.75,-67.08 13.75,-67.08 13.75,-67.08 7.75,-67.08 1.75,-61.08 1.75,-55.08 1.75,-55.08 1.75,-41.08 1.75,-41.08 1.75,-35.08 7.75,-29.08 13.75,-29.08 13.75,-29.08 114.75,-29.08 114.75,-29.08 120.75,-29.08 126.75,-35.08 126.75,-41.08 126.75,-41.08 126.75,-55.08 126.75,-55.08 126.75,-61.08 120.75,-67.08 114.75,-67.08"/>
<text text-anchor="middle" x="64.25" y="-51.88" font-family="Helvetica,sans-Serif" font-size="14.00" fill="#e6edf3">no credential</text>
<text text-anchor="middle" x="64.25" y="-36.88" font-family="Helvetica,sans-Serif" font-size="14.00" fill="#e6edf3">→ RuntimeError</text>
</g>
<!-- p4&#45;&gt;none -->
<g id="edge9" class="edge">
<title>p4&#45;&gt;none</title>
<path fill="none" stroke="#00e5ff" stroke-width="1.5" d="M78.81,-177.01C73.35,-171.8 68.52,-165.84 65.25,-159.17 52.37,-132.87 54.55,-98.63 58.37,-75.36"/>
<polygon fill="#00e5ff" stroke="#00e5ff" stroke-width="1.5" points="61.16,-75.7 59.83,-67.33 55.65,-74.7 61.16,-75.7"/>
<text text-anchor="middle" x="81.75" y="-132.97" font-family="Helvetica,sans-Serif" font-size="14.00" fill="#8b949e">miss</text>
</g>
</g>
</svg>
